<?xml version="1.0" encoding="UTF-8" standalone="no"?>
<!-- Generator: Adobe Illustrator 19.0.0, SVG Export Plug-In . SVG Version: 6.00 Build 0)  -->

<svg
   version="1.1"
   id="Layer_1"
   x="0px"
   y="0px"
   viewBox="0 0 512 512"
   style="enable-background:new 0 0 512 512;"
   xml:space="preserve"
   sodipodi:docname="thread-in-folder.svg"
   inkscape:version="1.2.1 (9c6d41e410, 2022-07-14)"
   inkscape:export-filename="thread-in-folder-16px.png"
   inkscape:export-xdpi="3"
   inkscape:export-ydpi="3"
   xmlns:inkscape="http://www.inkscape.org/namespaces/inkscape"
   xmlns:sodipodi="http://sodipodi.sourceforge.net/DTD/sodipodi-0.dtd"
   xmlns="http://www.w3.org/2000/svg"
   xmlns:svg="http://www.w3.org/2000/svg"><defs
   id="defs45">
	

		
	
			
			
		</defs><sodipodi:namedview
   id="namedview43"
   pagecolor="#ffffff"
   bordercolor="#666666"
   borderopacity="1.0"
   inkscape:showpageshadow="2"
   inkscape:pageopacity="0.0"
   inkscape:pagecheckerboard="0"
   inkscape:deskcolor="#d1d1d1"
   showgrid="false"
   inkscape:zoom="1.4542645"
   inkscape:cx="404.67191"
   inkscape:cy="280.55419"
   inkscape:window-width="2560"
   inkscape:window-height="1371"
   inkscape:window-x="0"
   inkscape:window-y="32"
   inkscape:window-maximized="1"
   inkscape:current-layer="Layer_1" />
<path
   id="path2"
   d="M 43.298828,41.085938 C 19.422852,41.085937 0,60.509789 0,84.384766 V 427.61523 c 0,23.87598 19.422852,43.29883 43.298828,43.29883 H 468.70117 C 492.57715,470.91406 512,451.49121 512,427.61523 V 147.5957 c 0,-23.87597 -19.42285,-43.29883 -43.29883,-43.29882 H 221.23438 V 84.384766 c 0,-23.875976 -19.42286,-43.298828 -43.29883,-43.298828 z m 0,25.283203 H 177.93555 c 9.93299,0 18.01562,8.082635 18.01562,18.015625 0,12.889035 -0.13279,23.053154 -0.13279,43.886794 l 272.88279,1.30852 c 9.93288,0.0476 18.01563,8.08263 18.01563,18.01562 v 280.01953 c 0,9.93299 -8.08264,18.01563 -18.01563,18.01563 H 43.298828 c -9.93299,0 -18.015625,-8.08264 -18.015625,-18.01563 0,-125.80168 0,-183.93937 0,-343.230464 0,-9.93299 8.082635,-18.015625 18.015625,-18.015625 z"
   sodipodi:nodetypes="sssssssccsssssccsssssccs" />
<g
   id="g12">
</g>
<g
   id="g14">
</g>
<g
   id="g16">
</g>
<g
   id="g18">
</g>
<g
   id="g20">
</g>
<g
   id="g22">
</g>
<g
   id="g24">
</g>
<g
   id="g26">
</g>
<g
   id="g28">
</g>
<g
   id="g30">
</g>
<g
   id="g32">
</g>
<g
   id="g34">
</g>
<g
   id="g36">
</g>
<g
   id="g38">
</g>
<g
   id="g40">
</g>
<path
   d="m 137.42363,206.71345 v 27.85281 h -20.27775 c -5.23601,0 -9.4814,4.24539 -9.4814,9.4824 v 74.66945 c 0,5.23602 4.24539,9.48142 9.4814,9.48142 h 20.27775 v 27.8528 c 0,5.23602 4.24539,9.4824 9.48141,9.4824 h 214.26965 c 5.236,0 9.4814,-4.24539 9.4814,-9.4824 v -27.8528 h 20.27774 c 5.23602,0 9.48143,-4.2454 9.48143,-9.48142 v -74.66945 c 0,-5.23602 -4.24541,-9.4824 -9.48143,-9.4824 h -20.27774 v -27.85281 c 0,-5.23602 -4.2454,-9.48141 -9.4814,-9.48141 H 146.90603 c -5.23602,0 -9.4824,4.24539 -9.4824,9.48141 z m 214.26964,83.84134 c -0.11534,0.17841 -0.23262,0.35287 -0.33711,0.54114 l -30.81977,55.47499 h -25.2417 L 351.69327,245.05308 Z M 273.6015,346.57092 H 248.35979 L 320.7907,216.19585 h 25.24172 z m 25.49601,-130.37607 -9.46367,17.03481 -8.5174,-17.03481 z m -39.18339,0 18.56065,37.12034 -12.70069,22.86125 -33.32343,-59.98159 z m -49.15568,0 44.16905,79.50527 -12.71352,22.88296 -56.88353,-102.38921 h 25.428 z m -47.12023,0.001 67.73014,121.91288 -4.70176,8.46319 h -21.45466 l -48.82449,-87.20653 v -43.16855 h 7.25077 z m -37.00993,93.03985 v -55.70563 h 10.79535 v 55.70563 z m 29.75916,-10.81111 26.74784,48.14633 h -26.74784 z m 185.84216,48.14633 9.46367,-17.03479 v 17.03479 z m 39.22282,-93.04085 v 55.70563 h -10.79534 v -55.70563 z"
   id="path5089"
   style="stroke-width:0.985697" /></svg>
